<svg xmlns="http://www.w3.org/2000/svg" xmlns:xlink="http://www.w3.org/1999/xlink" viewBox="0 0 341.78 174.16"><defs><style>.cls-1{fill:url(#Degradado_sin_nombre_61);}.cls-2{fill:url(#Degradado_sin_nombre_10);}.cls-3{fill:url(#Degradado_sin_nombre_377);}.cls-4{fill:url(#Degradado_sin_nombre_18);}.cls-5{fill:url(#Degradado_sin_nombre_416);}.cls-6{fill:#fff;}.cls-7{fill:url(#Degradado_sin_nombre_416-2);}.cls-8{fill:url(#Degradado_sin_nombre_411);}.cls-9{fill:url(#Degradado_sin_nombre_411-2);}.cls-10{fill:url(#Degradado_sin_nombre_22);}.cls-11{fill:url(#Degradado_sin_nombre_411-3);}.cls-12{fill:#244a02;}</style><linearGradient id="Degradado_sin_nombre_61" x1="249.05" y1="-4.65" x2="249.05" y2="186.78" gradientUnits="userSpaceOnUse"><stop offset="0" stop-color="#bbe928"/><stop offset="0.76" stop-color="#003f0e"/><stop offset="1" stop-color="#205232"/></linearGradient><linearGradient id="Degradado_sin_nombre_10" x1="229.28" y1="77.69" x2="341.78" y2="77.69" gradientUnits="userSpaceOnUse"><stop offset="0.01" stop-color="#006ab7"/><stop offset="0.71" stop-color="#05007f"/></linearGradient><linearGradient id="Degradado_sin_nombre_377" x1="296.79" y1="-15.92" x2="297.37" y2="96.13" gradientUnits="userSpaceOnUse"><stop offset="0" stop-color="#f9ff18"/><stop offset="1" stop-color="#dc6023"/></linearGradient><linearGradient id="Degradado_sin_nombre_18" x1="182.41" y1="45.12" x2="186.52" y2="121.51" gradientUnits="userSpaceOnUse"><stop offset="0.27" stop-color="#006ab7"/><stop offset="0.84" stop-color="#0007bf"/></linearGradient><linearGradient id="Degradado_sin_nombre_416" x1="220.84" y1="34.23" x2="110.71" y2="28.67" xlink:href="#Degradado_sin_nombre_377"/><linearGradient id="Degradado_sin_nombre_416-2" x1="106.75" y1="34.8" x2="-2.93" y2="29.26" xlink:href="#Degradado_sin_nombre_377"/><linearGradient id="Degradado_sin_nombre_411" x1="131.35" y1="-16.57" x2="133.95" y2="207.33" gradientUnits="userSpaceOnUse"><stop offset="0" stop-color="#bbe928"/><stop offset="0.55" stop-color="#003f0e"/><stop offset="0.67" stop-color="#205232"/><stop offset="0.8" stop-color="#1a4e33"/><stop offset="1" stop-color="#144b34"/></linearGradient><linearGradient id="Degradado_sin_nombre_411-2" x1="18.91" y1="-20.86" x2="22.18" y2="261.72" xlink:href="#Degradado_sin_nombre_411"/><linearGradient id="Degradado_sin_nombre_22" x1="50.95" y1="53.73" x2="49.78" y2="132.31" gradientUnits="userSpaceOnUse"><stop offset="0.01" stop-color="#006ab7"/><stop offset="0.13" stop-color="#0065b6"/><stop offset="0.27" stop-color="#0055b4"/><stop offset="0.43" stop-color="#003bb1"/><stop offset="0.59" stop-color="#0018ac"/><stop offset="0.65" stop-color="#000baa"/></linearGradient><linearGradient id="Degradado_sin_nombre_411-3" x1="20.01" y1="79.94" x2="19.58" y2="148.52" xlink:href="#Degradado_sin_nombre_411"/></defs><g id="Capa_2" data-name="Capa 2"><g id="letras_version_clara" data-name="letras version clara"><rect class="cls-1" x="229.28" y="0.19" width="39.54" height="133.21"/><polygon class="cls-2" points="268.81 107.72 229.28 68.13 229.28 21.97 276.45 68.13 341.78 133.41 294.6 133.41 268.81 107.72"/><polygon class="cls-3" points="268.81 26.64 252.78 44.97 276.45 68.13 341.2 0.19 294.03 0.19 268.81 26.64"/><path class="cls-4" d="M152.12,61.17h35.11l31.17,73.76H183.17Z"/><path class="cls-5" d="M206.18,46.42c-.54,1.23-4.71,10.37-14.18,14.43-4,1.72-7,1.68-19.33,1.6-4.13,0-11.49-.07-21.17-.11q.13-9.62.26-19.22h13.7c9.23,0,12.79-3.5,12.79-10,0-6.35-4.14-9.9-12.4-9.9H152q.16-11.57.32-23.14c16.57.29,34.83-2.49,47.08,11.17C206.42,19,211.8,33.66,206.18,46.42Z"/><path class="cls-6" d="M152,23.19l-.27,19.93h-.45V23.19Z"/><path class="cls-7" d="M85.65,11.43C73.4-2.49,55.14.35,38.58.05q-.44,31.73-.86,63.46l21.17.12c6.17,0,13.4,1.27,19.1-1.53,6.22-3.05,11.81-8.19,14.41-14.81C97,35.71,93.7,20.58,85.65,11.43ZM52.75,43.94h-13V23.63H53.12c7.56,0,11.35,3.62,11.35,10.08C64.47,40.36,61.21,43.94,52.75,43.94Z"/><polygon class="cls-8" points="112.39 0.05 152.36 0.05 151.93 106.42 111.97 106.42 112.39 0.05"/><rect class="cls-9" x="0.07" y="0.05" width="39.73" height="134.36"/><path class="cls-10" d="M92.86,77c-.5-.61-.91-1.09-1.2-1.42A42.88,42.88,0,0,0,73.29,63.49L0,63.38l.06,71h38.3c7.88,0,15.77-.13,23.65-.27,7.3-.13,15.09.94,21.54-3.33a43.12,43.12,0,0,0,10-9.45A34.1,34.1,0,0,0,101,101.22C101.13,94.39,98.8,84.4,92.86,77ZM53.77,108.15H39.63V87.84H54.17c8.25,0,12.39,3.62,12.39,10.08C66.56,104.57,63,108.15,53.77,108.15Z"/><rect class="cls-11" y="87.84" width="39.79" height="20.31"/><path class="cls-12" d="M85.45,168a14.14,14.14,0,0,0,6,1.46c2,0,3-.62,3-1.67,0-.9-1-1.49-3.51-2.21-3.56-1-6.51-2.82-6.51-6.44,0-3.79,3.41-6.58,8.84-6.58a15.67,15.67,0,0,1,6.39,1.18l-1.34,4.59a13.21,13.21,0,0,0-5.14-1.08c-1.74,0-2.73.55-2.73,1.45,0,1.12,1.33,1.49,4.06,2.36,4.06,1.3,6,3.25,6,6.42,0,3.5-2.75,6.72-9.42,6.72a16.61,16.61,0,0,1-6.79-1.42Z"/><path class="cls-12" d="M125.63,163.22c0,6.32-4.44,10.94-11.63,10.94-6.88,0-11.07-4.62-11.07-10.63,0-6.39,4.59-11,11.44-11C121.44,152.52,125.63,157.08,125.63,163.22Zm-16.47.15c0,3.6,2,6.27,5.15,6.27s5.09-2.67,5.09-6.27-2-6.32-5.12-6.32S109.16,159.78,109.16,163.37Z"/><path class="cls-12" d="M128.79,152.89h14.69v4.72h-8.83v3.63H143V166h-8.31v7.84h-5.86Z"/><path class="cls-12" d="M151.73,157.67h-5.89v-4.78H163.6v4.78h-6v16.12h-5.86Z"/><path class="cls-12" d="M170.91,173.79l-5.27-20.9H172l1.36,7.82c.44,2.48.9,5.36,1.24,7.38h.07c.34-2.3.77-4.87,1.24-7.47l1.36-7.73H184l1.33,8.22c.4,2.45.65,4.53,1,6.79h.06c.31-2.26.75-4.8,1.18-7.28l1.4-7.73h6l-5.7,20.9h-6.45l-1.58-9.11c-.31-1.83-.59-3.63-.84-6.05h-.06c-.34,2.42-.59,4.25-1,6.08l-1.74,9.08Z"/><path class="cls-12" d="M201.39,168.71l-1.34,5.08h-6.17l6.61-20.9h8l7,20.9H209l-1.56-5.08Zm5.18-4.28-1.12-3.69c-.37-1.18-.81-2.7-1.18-3.91h-.06c-.34,1.21-.65,2.73-1,3.94l-1,3.66Z"/><path class="cls-12" d="M218.37,153.17a53.47,53.47,0,0,1,7.38-.46c3.51,0,5.83.5,7.45,1.64a5.37,5.37,0,0,1,2.17,4.59,5.52,5.52,0,0,1-3.72,5v.13c1.39.59,2.17,1.95,2.75,3.69.72,2.14,1.43,5.21,1.83,6h-5.95a24.32,24.32,0,0,1-1.61-4.77c-.65-2.51-1.49-3-3.44-3h-1.06v7.78h-5.8Zm5.8,8.72h1.74c2.29,0,3.66-.93,3.66-2.52S228.39,157,226.4,157a13.11,13.11,0,0,0-2.23.12Z"/><path class="cls-12" d="M253.1,165.51h-8.5v3.57h9.49v4.71H238.74v-20.9h14.88v4.72h-9v3.19h8.5Z"/><rect class="cls-12" x="48.19" y="157.5" width="22.86" height="12"/><rect class="cls-12" x="268.67" y="157.5" width="22.86" height="12"/></g></g></svg>